<svg xmlns="http://www.w3.org/2000/svg" viewBox="0 0 234.58 157.86"><defs><style>.cls-1{fill:#66b333;}</style></defs><title>rauch-logo</title><g id="Ebene_2" data-name="Ebene 2"><g id="Ebene_1_Bild" data-name="Ebene 1 Bild"><path class="cls-1" d="M129,25c2.22,4.55.82,8.39-2.22,11.3a2.74,2.74,0,0,1-1.15.51c-11.11,3.28-21.91,7.29-32,13.12-7.08,4.1-13.56,9-18.75,15.36a37,37,0,0,0-8.71,24.87,42.11,42.11,0,0,0,9.76,25.71c6.18,7.71,14,13.35,22.7,17.85,11.22,5.8,23.19,9.33,35.56,11.57a165.77,165.77,0,0,0,29.56,2.79c4.54,0,9.07-.4,13.6-.73,7.56-.57,15.12-1.22,22.68-1.84l10.66-.88V100.39h-1q-12.68,0-25.35,0c-4.66,0-9.31.07-14,0a3.58,3.58,0,0,1-1.88-.55c-3-2-6.07-4-9.1-6.09-.2-.13-.39-.29-.83-.63l75.86.34v62.16c-2.33.11-4.54.23-6.75.32-9.72.44-19.44,1-29.16,1.27-9.33.32-18.67.62-28,.61-11.67,0-23.31-.67-34.93-1.8a292.21,292.21,0,0,1-40-6.51C81.11,146.06,67.06,141.39,54,134.1c-8-4.44-15.26-9.75-21.14-16.81C28,111.48,24.66,105,23.66,97.4A46.15,46.15,0,0,1,25,80.05c2.57-10.21,8.3-18.43,16.19-25.23,8.1-7,17.44-11.81,27.32-15.69a193.2,193.2,0,0,1,35.15-9.87C112,27.67,120.53,26.39,129,25Z"/><path class="cls-1" d="M108.5,66.87c.53-.14.79-.22,1.06-.27a208,208,0,0,0,35.16-10.28,98.47,98.47,0,0,0,21.65-11.47,34.9,34.9,0,0,0,10.06-10.44c3.91-6.76,2.91-12.25-3.12-17.18a39.87,39.87,0,0,0-9.61-5.6c-9.32-4-19.15-6.27-29.11-7.94A272.22,272.22,0,0,0,90.33.22C76,.19,64.18.07,49.86.05c-.41,0-2.46,0-3.74,0H0V126.7l.22,0q9.14,0,18.27,0h1.58V71.45a23.06,23.06,0,0,0,2.67,0,1.41,1.41,0,0,0,1-.66,32.29,32.29,0,0,1,6.74-10.13c.18-.19.33-.41.63-.79H19.86V7.7H21l17.29.14,26.1.22c7,.06,14,.07,20.94.23a134.6,134.6,0,0,1,23.77,2.45c5.56,1.14,11,2.69,15.89,5.65a18.16,18.16,0,0,1,7.57,8,9.15,9.15,0,0,1,1.09,5.37,20.42,20.42,0,0,1-5.28,10.61,39.27,39.27,0,0,1-11.68,8.43A102.74,102.74,0,0,1,92,57.1a15,15,0,0,0-7,3.43c-.21.19-.44.36-.66.54A35.49,35.49,0,0,0,73.86,74.23c-.32.74-.22,1.09.49,1.52L157,125.38a3.17,3.17,0,0,0,1.51.42q10.58.14,21.15.23l18,.14c1.63,0,3.26,0,4.89,0l0-.19Z"/><path class="cls-1" d="M234.58,28.43a285.46,285.46,0,0,0-52.51-4.83v10c17.64.62,35.19,2.33,52.51,6.32Z"/></g></g></svg>